<svg width="18" height="22" viewBox="0 0 18 22" fill="none" xmlns="http://www.w3.org/2000/svg">
<path fill-rule="evenodd" clip-rule="evenodd" d="M8.95187 0.00106024C13.5626 -0.00372317 14.3711 0.00584367 14.7032 0.0680281C14.915 0.111079 15.1989 0.178047 15.3289 0.221097C15.4636 0.259365 15.7091 0.3646 15.8824 0.450702C16.0556 0.536803 16.3444 0.72814 16.5321 0.871642C16.715 1.01993 16.9556 1.24475 17.0615 1.36912C17.1674 1.49349 17.331 1.72787 17.4225 1.88573C17.5187 2.04358 17.6487 2.29232 17.7064 2.43582C17.769 2.57932 17.8604 2.88068 17.9086 3.1055C17.9952 3.49296 18 3.87563 18 10.9503C18 17.5514 17.9904 18.4364 17.923 18.7951C17.8845 19.0199 17.793 19.3404 17.7209 19.5126C17.6535 19.6848 17.5283 19.9431 17.4417 20.0866C17.3599 20.2301 17.1818 20.4741 17.0567 20.6224C16.9267 20.7707 16.6909 21.0003 16.5321 21.1246C16.3733 21.249 16.0893 21.4308 15.9064 21.5264C15.7187 21.6221 15.4588 21.7369 15.3289 21.78C15.1941 21.8182 14.915 21.8852 14.7032 21.9282C14.3759 21.9904 13.5529 22 9 22C4.44706 22 3.62406 21.9904 3.29679 21.9282C3.08503 21.8852 2.80107 21.8182 2.67112 21.7752C2.53636 21.7369 2.29091 21.6317 2.11765 21.5456C1.94438 21.4595 1.6508 21.2681 1.46791 21.1246C1.28021 20.9763 1.05401 20.7659 0.957754 20.6511C0.861497 20.5363 0.707487 20.3258 0.616043 20.1823C0.519786 20.0388 0.385027 19.7805 0.312834 19.6083C0.240642 19.4361 0.139572 19.1156 0.0914438 18.8908C0.00481284 18.5033 0 18.135 0 11.046C0 4.44486 0.00962567 3.55992 0.0770053 3.20117C0.115508 2.97635 0.216578 2.63194 0.298396 2.43582C0.375401 2.2397 0.519786 1.95748 0.61123 1.81398C0.707487 1.67047 0.871123 1.44565 0.981818 1.32128C1.09251 1.19213 1.32834 0.972094 1.51604 0.833375C1.69893 0.694656 1.98289 0.517669 2.14171 0.436351C2.30053 0.359817 2.54118 0.259365 2.67112 0.216314C2.80107 0.173263 3.06096 0.111079 3.24866 0.0728115C3.52299 0.0201939 4.58663 0.00584366 8.95187 0.00106024ZM2.81551 1.81398C2.68075 1.87616 2.43048 2.0675 2.25722 2.2397C2.05027 2.45017 1.89144 2.66064 1.79037 2.86633C1.70856 3.03853 1.62192 3.31597 1.59305 3.48817C1.55936 3.69864 1.54011 6.16689 1.54011 10.9981C1.54011 15.8294 1.55936 18.2976 1.59305 18.5081C1.62192 18.6803 1.70856 18.9577 1.79037 19.1299C1.89144 19.3356 2.05027 19.5461 2.25722 19.7518C2.44973 19.9431 2.68556 20.1201 2.8492 20.1967C3.00321 20.2684 3.21979 20.3449 3.33048 20.3736C3.46043 20.4023 5.62139 20.4215 9 20.4215C12.6433 20.4215 14.5348 20.4023 14.6791 20.3689C14.7995 20.3402 15.016 20.2636 15.1604 20.1967C15.3144 20.1201 15.5551 19.9383 15.7428 19.7566C15.9497 19.5461 16.1086 19.3356 16.2096 19.1299C16.2914 18.9577 16.3781 18.6803 16.4069 18.5081C16.4406 18.2976 16.4599 15.8294 16.4599 10.9981C16.4599 6.16689 16.4406 3.69864 16.4069 3.48817C16.3781 3.31597 16.2914 3.03853 16.2096 2.86633C16.1086 2.66064 15.9497 2.45017 15.7428 2.2397C15.5551 2.05793 15.3144 1.87616 15.1604 1.79963C15.016 1.73266 14.7995 1.65612 14.6791 1.62742C14.5588 1.59872 14.3278 1.5748 14.1594 1.5748H13.861C13.861 3.83258 13.8465 4.19133 13.7936 4.3731C13.7551 4.50226 13.6492 4.72229 13.5578 4.85145C13.4711 4.9806 13.2882 5.17194 13.1583 5.27239C13.0283 5.36806 12.7829 5.49242 12.6096 5.54504C12.3112 5.64071 12.162 5.64071 9 5.64071C5.83797 5.64071 5.68877 5.64071 5.39037 5.54504C5.21711 5.49242 4.97166 5.36806 4.84171 5.27239C4.71176 5.17194 4.52888 4.9806 4.44225 4.85145C4.3508 4.71751 4.24492 4.50226 4.20642 4.3731C4.15348 4.19133 4.13904 3.83258 4.13904 2.85198V1.5748C3.63369 1.57959 3.39305 1.60829 3.27273 1.64177C3.15241 1.67526 2.95027 1.75179 2.81551 1.81398ZM5.67914 2.79458C5.67914 3.96651 5.68396 4.01435 5.7754 4.06218C5.83797 4.09088 7.01711 4.11002 9.01925 4.11002C11.7529 4.11002 12.1813 4.10045 12.2438 4.03827C12.3112 3.97608 12.3209 3.79431 12.3209 2.77066V1.5748H5.67914V2.79458ZM5.46257 8.18549C6.04973 8.19984 6.16043 8.21419 6.30481 8.30029C6.4107 8.36248 6.51658 8.49163 6.58877 8.63513C6.6754 8.8169 6.69946 8.91257 6.6754 9.06085C6.66096 9.16609 6.60321 9.30481 6.55508 9.37178C6.50695 9.43874 6.39144 9.5392 6.3 9.60138C6.14599 9.70183 6.08823 9.7114 5.41444 9.70662C4.75989 9.70662 4.67326 9.69705 4.50481 9.5966C4.40374 9.5392 4.27861 9.41483 4.23048 9.32394C4.17754 9.23306 4.13904 9.06085 4.13904 8.94127C4.13904 8.79777 4.17273 8.6734 4.24492 8.55859C4.30749 8.46771 4.45187 8.34334 4.57219 8.28116C4.77433 8.18071 4.8369 8.17114 5.46257 8.18549ZM11.1176 8.19027C13.2305 8.19984 13.3123 8.20462 13.4759 8.30029C13.5674 8.35291 13.6973 8.47249 13.7551 8.56338C13.8513 8.69731 13.8658 8.77385 13.8513 8.9891C13.8417 9.15174 13.7984 9.30481 13.7358 9.39569C13.6781 9.47223 13.5578 9.57746 13.4567 9.62051C13.2979 9.69705 13.0765 9.70662 8.78342 9.7114L8.61979 9.60138C8.52834 9.5392 8.41283 9.43874 8.36471 9.37178C8.31176 9.30481 8.25882 9.15652 8.24438 9.03694C8.22032 8.86473 8.23957 8.77863 8.33102 8.616C8.39358 8.50119 8.49946 8.37204 8.56684 8.33377C8.63422 8.29072 8.74011 8.23811 8.80749 8.21897C8.87487 8.19984 9.91444 8.18549 11.1176 8.19027ZM5.41444 12.2897C6.08823 12.2849 6.14599 12.2944 6.3 12.3949C6.39144 12.4571 6.50695 12.5575 6.55508 12.6245C6.60321 12.6915 6.66096 12.8302 6.6754 12.9354C6.69946 13.0837 6.6754 13.1794 6.58877 13.3611C6.51658 13.5047 6.4107 13.6338 6.30481 13.696C6.1508 13.7869 6.06417 13.7964 5.41444 13.7964C4.77433 13.7964 4.67326 13.7869 4.52406 13.696C4.43262 13.6434 4.30267 13.5238 4.24492 13.4329C4.14866 13.299 4.13422 13.2224 4.14866 13.0072C4.15829 12.8398 4.2016 12.6915 4.26898 12.5958C4.32674 12.5145 4.44706 12.414 4.53369 12.371C4.65882 12.3088 4.85134 12.2897 5.41444 12.2897ZM8.77861 12.2897H11.031C13.0765 12.2897 13.2979 12.2992 13.4567 12.371C13.5578 12.4188 13.6781 12.5193 13.7358 12.6006C13.7984 12.6915 13.8417 12.8445 13.8513 13.0072C13.8658 13.2224 13.8513 13.299 13.7551 13.4329C13.6973 13.5238 13.5674 13.6434 13.4759 13.696C13.3123 13.7917 13.2401 13.7964 11.0455 13.7964C8.80749 13.7964 8.78342 13.7964 8.61497 13.6912C8.52353 13.6338 8.39358 13.4951 8.33102 13.3803C8.23957 13.2176 8.22032 13.1315 8.24438 12.9593C8.25882 12.8398 8.31176 12.6915 8.36471 12.6245C8.41283 12.5575 8.52834 12.4571 8.61497 12.3949L8.77861 12.2897ZM5.40481 16.3604C5.93904 16.3604 6.10267 16.3747 6.24225 16.4417C6.34332 16.4895 6.47807 16.5995 6.54545 16.6904C6.64171 16.8196 6.67059 16.9057 6.67059 17.1209C6.67059 17.341 6.64171 17.4271 6.54545 17.5562C6.47807 17.6471 6.33369 17.7619 6.23262 17.8097C6.06898 17.8863 5.94866 17.8958 5.33743 17.8815C4.71176 17.8671 4.61551 17.8528 4.49519 17.7667C4.41818 17.7093 4.30749 17.5897 4.24973 17.5036C4.17754 17.3936 4.13904 17.2692 4.13904 17.1353C4.13904 17.0252 4.17273 16.8722 4.21123 16.8004C4.24492 16.7287 4.32674 16.6234 4.3893 16.566C4.45187 16.5086 4.55775 16.4369 4.62513 16.413C4.6877 16.3843 5.03904 16.3604 5.40481 16.3604ZM11.1032 16.3699C13.3219 16.3795 13.3797 16.3843 13.5096 16.4799C13.5866 16.5373 13.6973 16.6569 13.7551 16.743C13.8321 16.853 13.8658 16.9774 13.8658 17.1257C13.8658 17.2692 13.8321 17.3936 13.7551 17.5036C13.6973 17.5897 13.5866 17.7093 13.5096 17.7667C13.3797 17.8623 13.3219 17.8671 11.1176 17.8767C9.04813 17.8863 8.84118 17.8815 8.68235 17.8049C8.5861 17.7571 8.45134 17.6471 8.37914 17.5562C8.28289 17.4271 8.25882 17.341 8.25882 17.1257C8.25882 16.9057 8.28289 16.8196 8.37914 16.6904C8.45134 16.5995 8.58128 16.4895 8.66791 16.4417C8.82193 16.3651 9.02888 16.3603 11.1032 16.3699Z" fill="#3994EF"/>
</svg>
