<svg width="22" height="20" viewBox="0 0 22 20" fill="none" xmlns="http://www.w3.org/2000/svg">
<path d="M11 7.99994H11.01M9.36299 2.59095L1.25699 16.1249C1.08988 16.4143 1.00145 16.7424 1.0005 17.0766C0.999539 17.4108 1.08609 17.7393 1.25153 18.0297C1.41698 18.32 1.65555 18.562 1.94353 18.7315C2.2315 18.901 2.55884 18.9922 2.89299 18.9959H19.107C19.441 18.9921 19.7682 18.9009 20.056 18.7314C20.3438 18.562 20.5823 18.3201 20.7477 18.0299C20.9131 17.7397 20.9997 17.4113 20.9989 17.0773C20.9981 16.7433 20.9098 16.4153 20.743 16.1259L12.637 2.58994C12.4664 2.30845 12.2262 2.07569 11.9394 1.91414C11.6527 1.7526 11.3291 1.66772 11 1.66772C10.6709 1.66772 10.3473 1.7526 10.0605 1.91414C9.77378 2.07569 9.53353 2.30845 9.36299 2.58994V2.59095Z" stroke="#3994EF" stroke-width="2" stroke-linecap="round" stroke-linejoin="round"/>
<path d="M10 11H11V15H12" stroke="#3994EF" stroke-width="2" stroke-linecap="round" stroke-linejoin="round"/>
</svg>
