<svg width="22" height="22" viewBox="0 0 22 22" fill="none" xmlns="http://www.w3.org/2000/svg">
<path fill-rule="evenodd" clip-rule="evenodd" d="M6.83879 0.00456432C7.16067 0 7.26796 0.0182573 7.51054 0.127801C7.67381 0.196266 7.8884 0.314938 7.98636 0.387967C8.08899 0.46556 8.28492 0.689212 8.42953 0.885477C8.58347 1.09544 8.7794 1.30539 8.90069 1.38299C9.01731 1.46058 9.20391 1.55187 9.32053 1.58838C9.46048 1.63402 9.64241 1.64772 9.857 1.63402C10.0529 1.6249 10.2675 1.57469 10.3935 1.51535C10.5101 1.46515 10.678 1.35104 10.7667 1.26888C10.8553 1.18672 11.0046 1.00415 11.0979 0.86722C11.1912 0.73029 11.3498 0.547718 11.4477 0.460996C11.5504 0.374274 11.7836 0.23278 11.9656 0.150622C12.2594 0.0182573 12.3574 0 12.6793 0C13.0152 0 13.0991 0.0182573 13.5516 0.205394C13.8315 0.319502 14.214 0.49751 14.4053 0.60249C14.5966 0.702905 14.9744 0.935685 15.245 1.11369C15.5156 1.2917 15.8421 1.53817 15.9727 1.66598C16.0987 1.78921 16.2666 2.01743 16.3459 2.16805C16.4672 2.41909 16.4812 2.48299 16.4812 2.92116C16.4812 3.38672 16.4765 3.41411 16.2946 3.78838C16.1173 4.15809 16.108 4.19917 16.108 4.60996C16.108 4.97054 16.1267 5.07552 16.2153 5.23983C16.2713 5.34481 16.3972 5.51369 16.4905 5.61867C16.5885 5.71909 16.7704 5.85602 16.901 5.91535C17.0643 5.99295 17.2742 6.04315 17.5868 6.07054C17.8387 6.09793 18.1326 6.1527 18.2399 6.19378C18.3518 6.23485 18.5244 6.32614 18.6271 6.39004C18.7297 6.45851 18.8836 6.59544 18.9723 6.69129C19.0609 6.78714 19.1915 6.99253 19.2615 7.14315C19.3315 7.29378 19.4108 7.5722 19.4388 7.75934C19.4621 7.94647 19.4994 8.29336 19.5367 8.94606L19.826 9.10581C19.9892 9.18797 20.2411 9.35228 20.3858 9.47095C20.535 9.58506 20.6983 9.74481 20.7543 9.82697C20.8243 9.93651 20.8429 10.0324 20.8336 10.2241C20.8243 10.3884 20.7823 10.5207 20.717 10.612C20.6517 10.7033 20.1945 10.9863 19.3875 11.4427C18.711 11.8216 18.1233 12.1822 18.0766 12.2415C18.0206 12.3054 17.9973 12.383 18.016 12.4515C18.03 12.5062 18.0766 12.5838 18.1139 12.6203C18.1512 12.6568 18.2399 12.6888 18.3099 12.6888C18.3938 12.6934 18.893 12.4378 19.7 11.9813C20.7869 11.3697 20.9875 11.2739 21.1555 11.2739C21.2674 11.2739 21.4027 11.2967 21.4587 11.3241C21.5193 11.3515 21.6266 11.429 21.6966 11.4975C21.7666 11.5614 21.8552 11.7166 21.8972 11.8444C21.9345 11.9722 21.9765 12.2552 21.9905 12.4834C22.0091 12.7299 21.9998 13.0494 21.9672 13.2822C21.9345 13.4967 21.8459 13.8527 21.7712 14.0809C21.6966 14.3046 21.552 14.6332 21.4447 14.8112C21.3421 14.9846 21.1461 15.2631 21.0155 15.4228C20.8802 15.5826 20.605 15.8473 20.3997 16.0071C20.1945 16.1714 19.8353 16.3905 19.6067 16.5C19.3735 16.6141 19.0189 16.7465 18.8137 16.8012C18.5711 16.8606 18.2352 16.9062 17.2742 16.9427L14.8951 19.2614C13.2997 20.8178 12.446 21.612 12.3061 21.6851C12.1895 21.7444 11.9702 21.8403 11.8163 21.895C11.6064 21.9726 11.4384 22 11.1399 22C10.818 22 10.678 21.9772 10.4075 21.8768C10.2209 21.8037 9.94097 21.6577 9.78236 21.5436C9.62375 21.4295 9.30654 21.1419 9.07796 20.9046C8.80739 20.6261 8.6068 20.366 8.50884 20.1743C8.42487 20.01 8.3269 19.7224 8.29425 19.5353C8.24293 19.2614 8.24293 19.1245 8.28958 18.8506C8.31757 18.6635 8.41087 18.3759 8.49018 18.2116C8.6068 17.9697 8.77007 17.778 9.38584 17.1755C9.80102 16.7647 10.1276 16.4224 10.1136 16.4087C10.0996 16.395 9.93164 16.3859 9.74038 16.3813C9.44649 16.3813 9.34386 16.4042 9.11061 16.5183C8.95667 16.5913 8.76541 16.7237 8.69077 16.8058C8.61146 16.8925 8.45752 17.0934 8.3409 17.2485C8.22427 17.4083 8.02368 17.6046 7.89773 17.6913C7.76711 17.7734 7.57118 17.8784 7.45456 17.9195C7.31928 17.9697 7.10469 17.9971 6.84812 17.9971C6.52624 18.0017 6.39096 17.9788 6.12506 17.8739C5.94312 17.8054 5.58859 17.6456 5.33202 17.5178C5.07545 17.3946 4.62295 17.1344 4.32906 16.9427C4.03517 16.751 3.6853 16.4909 3.55468 16.3631C3.42873 16.2398 3.26545 16.0207 3.19548 15.8838C3.13017 15.7469 3.05553 15.5095 3.03221 15.3589C3.00422 15.2083 3.00422 14.971 3.02288 14.834C3.04154 14.6971 3.13483 14.4095 3.23746 14.195C3.37741 13.8938 3.4194 13.7386 3.43339 13.4876C3.44738 13.2456 3.42873 13.1087 3.35409 12.917C3.30277 12.7801 3.17215 12.5656 3.0602 12.4469C2.94824 12.3237 2.75231 12.173 2.62636 12.1137C2.47708 12.0407 2.2485 11.9859 1.99659 11.9631C1.77734 11.9402 1.53476 11.9037 1.46012 11.8855C1.38082 11.8672 1.22221 11.8079 1.09626 11.7485C0.974971 11.6892 0.793038 11.5614 0.685745 11.4701C0.583116 11.3743 0.433839 11.2054 0.363865 11.0913C0.289226 10.9772 0.200592 10.7855 0.163273 10.6577C0.125953 10.5344 0.069974 10.1739 0.0373195 9.85892C0 9.50747 -0.00932986 9.04191 0.00932986 8.64938C0.0233247 8.29793 0.0559792 7.88257 0.0839688 7.72739C0.107293 7.56764 0.177267 7.32116 0.233247 7.17967C0.307885 6.9834 0.410514 6.83734 0.639096 6.61369C0.867677 6.39004 1.01696 6.28963 1.21288 6.2166C1.36216 6.16183 1.68871 6.09336 1.93595 6.07054C2.30448 6.02946 2.44909 5.99295 2.66834 5.87427C2.84561 5.78299 3.01355 5.64606 3.13017 5.5C3.22813 5.3722 3.34009 5.16224 3.38208 5.02075C3.42873 4.85643 3.44738 4.66929 3.42873 4.47303C3.41473 4.26307 3.35875 4.07593 3.24213 3.83402C3.14883 3.64689 3.05553 3.36846 3.03221 3.21784C3.00422 3.05809 3.00422 2.82988 3.02754 2.67012C3.0462 2.5195 3.13017 2.27303 3.20481 2.12241C3.28411 1.95809 3.43805 1.75726 3.592 1.62033C3.73195 1.4971 4.05383 1.25519 4.3104 1.09087C4.5623 0.921992 4.94949 0.689212 5.16874 0.575104C5.388 0.460996 5.76586 0.287552 6.00843 0.187137C6.40029 0.0273859 6.49825 0.00456432 6.83413 0.00456432H6.83879ZM5.11277 2.31867C4.83753 2.50124 4.59029 2.68838 4.56697 2.73859C4.53898 2.7888 4.52032 2.88008 4.52032 2.94398C4.52032 3.00788 4.5763 3.16763 4.64161 3.3C4.71158 3.4278 4.80488 3.69253 4.85153 3.87967C4.90284 4.07137 4.94016 4.38174 4.94016 4.58714C4.94016 4.80622 4.90284 5.09834 4.84686 5.31743C4.79088 5.51826 4.6696 5.82407 4.5763 6.00207C4.46901 6.20747 4.27774 6.44481 4.05383 6.66847C3.78326 6.9332 3.61066 7.05643 3.30744 7.20249C3.08818 7.30747 2.76164 7.42614 2.58437 7.46266C2.40244 7.49917 2.1552 7.53112 2.03391 7.53112C1.86597 7.53112 1.782 7.55851 1.7027 7.6361C1.62806 7.70456 1.58141 7.81867 1.55342 8.01037C1.5301 8.161 1.51144 8.61286 1.51144 9.01452C1.51144 9.41618 1.52543 9.85892 1.54409 9.99585C1.56275 10.1328 1.61873 10.2971 1.66072 10.3519C1.73069 10.4432 1.80533 10.466 2.17386 10.5025C2.42576 10.5253 2.74764 10.5938 2.94357 10.6622C3.13017 10.7307 3.4194 10.8676 3.58267 10.9726C3.75061 11.0776 4.01184 11.2967 4.16578 11.461C4.32439 11.6253 4.52032 11.9037 4.60895 12.0772C4.69759 12.2506 4.79555 12.4834 4.83287 12.5975C4.87019 12.7116 4.91217 13.0174 4.92617 13.2822C4.94483 13.6382 4.93083 13.8436 4.87485 14.0718C4.83287 14.2407 4.73491 14.5145 4.66027 14.688C4.58096 14.8568 4.52032 15.0485 4.52032 15.1216C4.52032 15.1946 4.57163 15.2905 4.64627 15.3635C4.72091 15.4274 4.94483 15.5917 5.15008 15.7241C5.35534 15.861 5.72387 16.071 5.96645 16.1942C6.20902 16.3174 6.51225 16.4589 6.64286 16.5C6.82946 16.5639 6.89943 16.5685 6.97874 16.5274C7.03938 16.5 7.16534 16.3585 7.26796 16.217C7.36593 16.071 7.58051 15.8336 7.74379 15.683C7.90706 15.5369 8.1683 15.3498 8.32224 15.2676C8.47618 15.1855 8.70476 15.0851 8.83538 15.044C8.96133 15.0029 9.22724 14.9527 9.4185 14.9299C9.61442 14.9116 9.93631 14.9116 10.1416 14.9344C10.3795 14.9618 10.6594 15.0303 10.9113 15.1307L11.3078 15.2859L13.421 13.2137C13.463 12.2826 13.505 11.9402 13.5656 11.7075C13.6216 11.5066 13.7522 11.1689 13.8548 10.9544C13.9575 10.7398 14.1347 10.4432 14.2467 10.2925C14.3587 10.1419 14.5826 9.89087 14.7458 9.74025C14.9045 9.58506 15.1657 9.3751 15.3196 9.27469C15.4736 9.17427 15.6835 9.05104 15.7861 9.00083C15.8888 8.95062 16.0893 8.86847 16.2293 8.81369C16.3692 8.76349 16.6212 8.69046 16.7891 8.64938C16.957 8.61286 17.2976 8.56722 17.5495 8.54896L18.002 8.51245C17.9973 8.22946 17.9786 8.04232 17.9553 7.91909C17.932 7.7639 17.8853 7.66349 17.8107 7.60871C17.7407 7.55851 17.6194 7.52656 17.4888 7.52656C17.3722 7.53112 17.1296 7.49917 16.9524 7.46266C16.7704 7.42614 16.4485 7.31203 16.2293 7.20705C15.9167 7.05643 15.7535 6.93776 15.4596 6.64564C15.1844 6.37635 15.0397 6.18465 14.9138 5.93361C14.8158 5.74647 14.7085 5.45892 14.6712 5.29461C14.6292 5.13029 14.5966 4.81079 14.5966 4.58714C14.5966 4.35892 14.6292 4.05311 14.6665 3.90249C14.7085 3.75187 14.8018 3.49627 14.8811 3.33195C14.9558 3.16763 15.0164 2.9805 15.0164 2.90747C15.0164 2.83444 14.9651 2.73859 14.8858 2.66556C14.8158 2.60166 14.5593 2.41452 14.3167 2.25934C14.0741 2.09959 13.6309 1.85311 13.337 1.71618C13.0431 1.57469 12.7446 1.46058 12.67 1.46058C12.5953 1.46058 12.5067 1.50166 12.4507 1.56556C12.3994 1.62033 12.2641 1.79378 12.1475 1.95353C12.0309 2.10871 11.8163 2.3278 11.667 2.44191C11.5224 2.55602 11.2518 2.72033 11.0745 2.80705C10.8926 2.89378 10.6221 2.99876 10.4681 3.03527C10.3142 3.07178 9.99695 3.10373 9.76837 3.10373C9.53512 3.10373 9.22257 3.07178 9.06863 3.03527C8.91469 2.99876 8.62079 2.88465 8.41554 2.7888C8.21028 2.68838 7.91639 2.49668 7.76245 2.35975C7.6085 2.22739 7.40325 1.99917 7.30528 1.85768C7.21199 1.71618 7.08603 1.56556 7.02539 1.52905C6.96941 1.49253 6.88077 1.46058 6.82946 1.46058C6.77815 1.46058 6.48426 1.57925 6.17637 1.72988C5.86848 1.87593 5.39266 2.14066 5.11277 2.31867ZM16.7658 10.183C16.6118 10.2378 16.3506 10.3656 16.1873 10.4705C16.0194 10.5755 15.7721 10.7809 15.6369 10.9315C15.4969 11.0822 15.315 11.3469 15.2263 11.5249C15.1377 11.6983 15.0304 11.9996 14.9884 12.1867C14.9324 12.4515 14.9231 12.6477 14.9464 13.0768C14.9744 13.4739 14.9651 13.6564 14.9231 13.7386C14.8905 13.8025 13.7382 14.9618 12.3574 16.3174C10.2768 18.3622 9.83834 18.8141 9.79169 18.9647C9.75904 19.0743 9.74971 19.2203 9.76837 19.3299C9.79636 19.4851 9.88033 19.59 10.3002 20.0008C10.678 20.3751 10.832 20.4938 10.9579 20.5166C11.0466 20.5349 11.2052 20.5349 11.3078 20.5166C11.4804 20.4892 11.7136 20.2747 14.0368 18.0062C15.5715 16.5091 16.6351 15.505 16.7191 15.473C16.8124 15.4411 17.0597 15.432 17.4422 15.4548C17.918 15.4776 18.0859 15.4685 18.3518 15.4046C18.5291 15.3589 18.823 15.2539 19.0049 15.1627C19.2335 15.0531 19.4388 14.8979 19.6813 14.656C19.8866 14.4552 20.0965 14.195 20.1805 14.0353C20.2598 13.8846 20.3578 13.6519 20.3997 13.5195C20.4417 13.3917 20.4604 13.2822 20.4371 13.2822C20.4184 13.2822 20.1012 13.451 19.728 13.661C19.3548 13.8664 18.9583 14.0672 18.8417 14.0992C18.711 14.1357 18.4825 14.1494 18.2352 14.1402C17.932 14.1266 17.7781 14.0946 17.5681 13.9988C17.4235 13.9303 17.1996 13.7797 17.0783 13.6564C16.9524 13.5378 16.7984 13.3369 16.7331 13.2137C16.6631 13.0859 16.5885 12.8531 16.5558 12.6888C16.5185 12.4697 16.5139 12.3191 16.5512 12.1183C16.5792 11.9676 16.6538 11.7394 16.7145 11.6162C16.7751 11.4884 16.9197 11.2967 17.0317 11.1826C17.153 11.0548 17.4935 10.8266 17.918 10.5892C18.2959 10.3747 18.6084 10.1876 18.6084 10.1647C18.6084 10.1465 18.5151 10.11 18.3985 10.0871C18.2819 10.0598 18.0346 10.0324 17.848 10.0232C17.6661 10.0095 17.4049 10.0187 17.2789 10.0415C17.1483 10.0643 16.9197 10.1282 16.7658 10.183ZM9.74504 5.29917C10.0763 5.29917 10.3981 5.32199 10.5847 5.36763C10.7527 5.40415 11.0232 5.49087 11.1912 5.55477C11.3591 5.61867 11.639 5.76473 11.8209 5.87884C11.9982 5.99295 12.2594 6.18921 12.3994 6.31701C12.5347 6.44481 12.7399 6.67303 12.8472 6.82365C12.9592 6.97427 13.1225 7.2527 13.2158 7.43983C13.3044 7.62697 13.4163 7.91452 13.463 8.07884C13.5236 8.29793 13.547 8.5444 13.547 9.01452C13.5423 9.48465 13.5236 9.73112 13.463 9.95021C13.4163 10.1145 13.2857 10.4295 13.1738 10.6577C13.0618 10.8813 12.8566 11.2008 12.7213 11.3651C12.5813 11.5295 12.3341 11.7714 12.1708 11.9037C12.0029 12.0361 11.6763 12.2369 11.4477 12.3465C11.2145 12.456 10.8926 12.5838 10.7247 12.6295C10.5008 12.6888 10.2489 12.7071 9.76837 12.7116C9.22724 12.7116 9.05463 12.6934 8.75141 12.6066C8.55549 12.5519 8.26159 12.4423 8.09832 12.3647C7.93971 12.2871 7.68314 12.132 7.5292 12.027C7.37526 11.922 7.14201 11.7212 7.01606 11.5888C6.88544 11.4519 6.70817 11.2373 6.61954 11.1141C6.5309 10.9863 6.39096 10.7398 6.30699 10.5664C6.22302 10.3884 6.11106 10.0826 6.05975 9.88174C5.99444 9.62158 5.96645 9.37054 5.96645 9.01452C5.96645 8.67676 5.99444 8.39378 6.05508 8.1473C6.1064 7.94647 6.20436 7.65892 6.26967 7.5083C6.33964 7.35768 6.47026 7.12033 6.56356 6.9834C6.65219 6.84647 6.86678 6.59087 7.03472 6.42199C7.20265 6.24855 7.47789 6.02033 7.64582 5.91079C7.81376 5.80124 8.075 5.65975 8.22894 5.59129C8.38288 5.52739 8.66744 5.43154 8.85871 5.38589C9.09195 5.32808 9.3874 5.29917 9.74504 5.29917ZM8.60213 7.05187C8.47152 7.1249 8.28492 7.25726 8.18696 7.34855C8.08433 7.43527 7.92105 7.63154 7.82309 7.78216C7.72046 7.93278 7.59917 8.18838 7.54786 8.3527C7.49188 8.53983 7.45923 8.78174 7.45923 9.01452C7.45923 9.2473 7.49188 9.48921 7.54786 9.67635C7.59917 9.84066 7.72979 10.1054 7.84175 10.2651C7.95371 10.4295 8.13564 10.6394 8.25226 10.7307C8.36889 10.8266 8.56482 10.9589 8.69543 11.0228C8.82139 11.0867 9.0453 11.1689 9.18525 11.2054C9.3252 11.2419 9.57711 11.2739 9.74504 11.2739C9.91298 11.2739 10.1742 11.2419 10.3282 11.2008C10.4821 11.1643 10.734 11.0639 10.888 10.9863C11.0419 10.9041 11.2705 10.7353 11.4011 10.612C11.527 10.4842 11.6996 10.2606 11.7836 10.11C11.8629 9.95934 11.9609 9.72199 12.0029 9.58506C12.0449 9.44813 12.0775 9.18797 12.0775 9.01452C12.0775 8.83651 12.0449 8.58091 12.0075 8.44398C11.9702 8.30705 11.8862 8.08797 11.8209 7.96473C11.7556 7.83693 11.6203 7.64523 11.5224 7.53112C11.4291 7.41701 11.2145 7.239 11.0466 7.12946C10.8833 7.01992 10.6127 6.89212 10.4448 6.84191C10.2395 6.78257 10.0156 6.75519 9.74504 6.75519C9.50713 6.75975 9.2459 6.7917 9.09195 6.83734C8.952 6.88299 8.72809 6.97884 8.60213 7.05187Z" fill="#3994EF"/>
</svg>
