<svg width="48" height="48" viewBox="0 0 48 48" fill="none" xmlns="http://www.w3.org/2000/svg">
<rect width="48" height="48" rx="12" fill="white"/>
<path fill-rule="evenodd" clip-rule="evenodd" d="M24.2029 13.0049C24.5455 13.0189 25.3545 13.1828 28.2953 13.8291C30.3082 14.2739 32.0689 14.672 32.1974 14.7141C32.3307 14.7563 32.5543 14.8452 32.6971 14.9155C32.8398 14.9904 33.0683 15.1309 33.1967 15.2292C33.33 15.3323 33.5394 15.5524 33.6679 15.7163C33.7963 15.8802 33.9629 16.1424 34.0343 16.2969C34.1104 16.4515 34.2151 16.7652 34.2674 16.9994C34.3531 17.3881 34.3626 17.5988 34.3626 19.692C34.3626 21.3264 34.3436 22.174 34.2912 22.7125C34.2532 23.1246 34.177 23.7146 34.1247 24.0237C34.0723 24.3328 33.9724 24.8057 33.9058 25.0773C33.8392 25.349 33.6964 25.8219 33.5917 26.131C33.487 26.4401 33.3157 26.8943 33.211 27.1378C33.1063 27.3813 32.9255 27.7606 32.8161 27.9807C32.7066 28.2008 32.502 28.5661 32.364 28.8002C32.226 29.0297 31.9738 29.4231 31.8025 29.6666C31.6311 29.9101 31.3314 30.3128 31.1315 30.5563C30.9364 30.7998 30.4843 31.2868 30.1274 31.6334C29.7753 31.9846 29.2613 32.4435 28.9853 32.6636C28.7093 32.879 28.2192 33.2302 27.8908 33.441C27.5625 33.6517 27.0486 33.9561 26.7488 34.1106C26.449 34.2652 25.9779 34.4899 25.7019 34.607C25.4259 34.7241 25.0309 34.8646 24.8215 34.9161C24.536 34.991 24.3456 35.0097 24.0601 34.9957C23.8174 34.9816 23.5414 34.9254 23.2987 34.8458C23.0894 34.7756 22.6611 34.6023 22.347 34.4618C22.0329 34.3214 21.519 34.0638 21.2049 33.8858C20.8909 33.7079 20.3674 33.3754 20.0438 33.146C19.7155 32.9212 19.192 32.5091 18.878 32.2375C18.5591 31.9659 18.1356 31.5678 17.931 31.3477C17.7216 31.1323 17.3933 30.753 17.1934 30.5095C16.9888 30.266 16.6271 29.7696 16.3844 29.409C16.1274 29.0297 15.761 28.3975 15.5183 27.9105C15.2852 27.4469 14.9949 26.7913 14.8759 26.4588C14.7522 26.1216 14.5809 25.5737 14.4952 25.2412C14.4048 24.9041 14.2906 24.3796 14.2383 24.0705C14.1859 23.7615 14.105 23.148 14.067 22.7125C14.0051 22.0709 13.9908 21.4528 14.0051 19.5281C14.0241 17.4302 14.0336 17.1071 14.105 16.8589C14.1526 16.7044 14.2478 16.4515 14.3239 16.2969C14.3953 16.1424 14.5619 15.8802 14.6903 15.7163C14.8188 15.5524 15.0425 15.3276 15.1852 15.2199C15.328 15.1122 15.5517 14.9717 15.6849 14.9061C15.8134 14.8406 16.0275 14.7563 16.1608 14.7141C16.2892 14.672 18.0452 14.2786 20.0629 13.8384C22.0758 13.3982 23.7365 13.0236 23.7508 13.0142C23.7603 13.0002 23.965 12.9955 24.2029 13.0049ZM16.4939 16.7324C16.3892 16.8027 16.2512 16.9572 16.1846 17.0696L16.0656 17.2803C16.0703 22.2348 16.0799 22.7031 16.1512 23.2042C16.1988 23.5273 16.2892 24.0331 16.3559 24.3281C16.4225 24.6231 16.57 25.1382 16.6842 25.4754C16.7984 25.8079 17.003 26.3277 17.1363 26.6227C17.2695 26.9177 17.4884 27.3485 17.6217 27.5827C17.7549 27.8121 17.969 28.1634 18.1023 28.3554C18.2355 28.5474 18.483 28.8845 18.6543 29.1046C18.8256 29.3247 19.1159 29.6619 19.2967 29.8539C19.4775 30.0459 19.8202 30.3831 20.0581 30.5985C20.296 30.8139 20.6529 31.1089 20.848 31.2541C21.0431 31.4039 21.3667 31.6287 21.5618 31.7598C21.7569 31.8863 22.0996 32.097 22.3232 32.2187C22.5469 32.3405 22.9847 32.5606 23.2987 32.7011C23.8079 32.9305 23.9031 32.9633 24.1791 32.9586C24.4456 32.9586 24.555 32.9305 24.9881 32.7385C25.2641 32.6168 25.6495 32.4295 25.8446 32.3218C26.0397 32.2187 26.4157 31.994 26.6774 31.8301C26.9391 31.6615 27.315 31.4039 27.5102 31.2588C27.7053 31.1089 28.0526 30.8232 28.2811 30.6219C28.5047 30.4158 28.8473 30.0833 29.0377 29.8773C29.228 29.6713 29.5135 29.3435 29.6658 29.1515C29.8229 28.9595 30.0751 28.6223 30.2226 28.4022C30.3701 28.1821 30.6033 27.8121 30.7365 27.5827C30.8698 27.3485 31.0887 26.9177 31.2219 26.6227C31.3551 26.3277 31.5598 25.8079 31.674 25.4754C31.7882 25.1382 31.9357 24.6231 32.0023 24.3281C32.0689 24.0331 32.1594 23.5273 32.2069 23.2042C32.2783 22.7031 32.2878 22.2348 32.2926 19.9496V17.2803C32.107 16.9572 31.969 16.8027 31.8643 16.7324C31.6978 16.6154 31.2219 16.503 28.0336 15.8052C25.5401 15.262 24.3123 15.0091 24.1315 15.0138C23.984 15.0185 22.3042 15.365 20.277 15.8099C17.1696 16.4983 16.6604 16.6201 16.4939 16.7324ZM28.2858 20.1135C28.4571 20.1135 28.6189 20.1463 28.7331 20.2025C28.8331 20.2493 28.9853 20.3664 29.0662 20.46C29.1519 20.5537 29.2471 20.7176 29.2756 20.8253C29.3042 20.9377 29.3137 21.1156 29.2994 21.2233C29.2851 21.3357 29.2423 21.4809 29.2042 21.5511C29.1709 21.6261 27.986 22.8015 26.5775 24.1642C24.4551 26.2247 23.9792 26.6602 23.8222 26.707C23.7175 26.7351 23.5462 26.7632 23.4415 26.7632C23.3368 26.7632 23.1703 26.7398 23.0703 26.7164C22.9323 26.6789 22.623 26.412 21.5856 25.4145C20.7386 24.6091 20.2389 24.0986 20.1818 23.9769C20.1247 23.8645 20.0866 23.6912 20.0866 23.546C20.0866 23.3915 20.12 23.2276 20.1771 23.1246C20.2294 23.0262 20.3293 22.8904 20.4055 22.8202C20.4769 22.75 20.6196 22.661 20.7148 22.6235C20.8147 22.5814 20.986 22.5486 21.0955 22.5486C21.2097 22.5486 21.3953 22.5954 21.5142 22.6469C21.6618 22.7125 21.9854 22.9935 23.3939 24.3843L25.5353 22.3379C26.7107 21.214 27.7528 20.254 27.8433 20.2025C27.9479 20.151 28.1145 20.1182 28.2811 20.1135H28.2858Z" fill="#3994EF"/>
</svg>
