<svg width="24" height="24" viewBox="0 0 24 24" fill="none" xmlns="http://www.w3.org/2000/svg">
<path d="M0.372553 11.8557C0.27299 11.9175 0.152466 12.0361 0.100064 12.1237C0.0476622 12.2062 0.000500611 12.3814 0.000500611 12.5103C-0.00473956 12.6392 0.0319417 12.8093 0.0738631 12.8969C0.115784 12.9794 0.194387 13.0928 0.246789 13.1392C0.304431 13.1856 0.435435 13.2629 0.545479 13.3041C0.713164 13.3763 1.17954 13.3866 4.135 13.3866C6.28347 13.3866 7.59351 13.366 7.7088 13.3351C7.80836 13.3041 7.97081 13.2062 8.06513 13.1134C8.15945 13.0258 8.25902 12.8608 8.28522 12.7526C8.31666 12.634 8.3219 12.4897 8.29046 12.366C8.25902 12.2629 8.19089 12.1134 8.13325 12.0309C8.07037 11.9536 7.94985 11.8557 7.866 11.8144C7.72976 11.7474 7.20574 11.7371 4.12976 11.7371H0.550719L0.372553 11.8557ZM13.2634 2.06701C13.1638 2.10309 13.0433 2.19072 12.9909 2.25773C12.9437 2.32474 12.8756 2.44845 12.8442 2.52577C12.818 2.60309 12.7918 2.73711 12.7918 2.81959C12.7918 2.90722 12.8232 3.05155 12.8599 3.14433C12.8966 3.23711 13.0171 3.38144 13.1324 3.46392L13.3315 3.61856L20.9402 3.6701C21.4066 3.89175 21.6215 4.06186 21.7944 4.24742C21.9621 4.42784 22.114 4.65464 22.1717 4.81959C22.2293 4.96907 22.2765 5.17526 22.2765 5.28351C22.2765 5.39175 21.9097 7.60825 21.4643 10.2216C21.0188 12.8247 20.6311 15.1598 20.5996 15.4021C20.5577 15.7216 20.5001 15.9175 20.3743 16.1443C20.28 16.3093 20.1123 16.5258 19.997 16.6186C19.8817 16.7165 19.6774 16.8454 19.5516 16.9072L19.3158 17.0206C12.2782 17.067 10.7691 17.0979 10.6695 17.134C10.5804 17.1649 10.418 17.2371 10.3027 17.2938C10.1874 17.3505 9.5481 17.8402 8.88784 18.3866L7.6826 19.3711C7.63544 17.9794 7.59875 17.6495 7.55683 17.5619C7.51491 17.4948 7.44679 17.3918 7.39963 17.3402C7.35247 17.2887 7.24766 17.2113 7.16906 17.1701C7.09046 17.134 6.84941 17.0773 6.63456 17.0464C6.41447 17.0206 6.14198 16.9536 6.01622 16.8969C5.8957 16.8402 5.70181 16.7165 5.58653 16.6186C5.47124 16.5258 5.29832 16.3093 5.20399 16.1443C5.08347 15.9227 5.02583 15.732 4.99439 15.4485C4.96819 15.232 4.9053 14.9845 4.84242 14.8814C4.79002 14.7835 4.65902 14.6495 4.55945 14.5876C4.43369 14.5052 4.30268 14.4691 4.11928 14.4691C3.93063 14.4691 3.80487 14.5052 3.6791 14.5876C3.57954 14.6495 3.45378 14.7835 3.40137 14.8814C3.33849 15.0052 3.30705 15.1753 3.30705 15.3969C3.30705 15.5825 3.35421 15.9175 3.41185 16.1443C3.4695 16.3711 3.60574 16.7216 3.71578 16.9175C3.84155 17.1546 4.05116 17.4227 4.32888 17.6959C4.59613 17.9588 4.86862 18.1701 5.08871 18.2835C5.27212 18.3814 5.54461 18.4948 5.69133 18.5464L5.95334 18.6289C6.0005 21.4021 6.01098 21.5206 6.11054 21.6546C6.16819 21.732 6.30967 21.8454 6.42495 21.8969C6.54024 21.9536 6.70792 21.9948 6.80225 21.9948C6.89657 21.9948 7.04854 21.9588 7.14286 21.9124C7.23718 21.866 8.16469 21.1289 9.20225 20.2732L11.0887 18.7216C19.2162 18.6753 19.5464 18.6649 19.8136 18.5773C19.9708 18.5258 20.2643 18.3969 20.4686 18.2938C20.7149 18.1701 20.9717 17.9742 21.2547 17.6959C21.5848 17.3711 21.7263 17.1856 21.8992 16.8402C22.0354 16.5619 22.1455 16.2526 22.1979 15.9897C22.2398 15.7629 22.6538 13.3196 23.1202 10.5515C23.8695 6.09278 23.9638 5.47938 23.9376 5.1134C23.9219 4.84536 23.859 4.56186 23.7542 4.28866C23.6704 4.06186 23.5341 3.7732 23.4555 3.64433C23.3717 3.52062 23.2197 3.31443 23.1202 3.19072C23.0153 3.06186 22.8005 2.86082 22.6433 2.74227C22.4809 2.62371 22.1769 2.43814 21.9621 2.34021C21.742 2.23711 21.4014 2.11856 21.2022 2.07732C20.8983 2.01031 20.2119 2 17.1411 2C14.3009 2 13.4049 2.01546 13.2634 2.06701ZM2.67823 3.02062C2.57867 3.07732 2.44242 3.20103 2.37954 3.29381C2.31142 3.3866 2.2433 3.54639 2.22233 3.64433C2.20661 3.75773 2.22758 3.91237 2.27998 4.04639C2.32714 4.18041 2.43718 4.31959 2.55247 4.40722L2.74635 4.54639C9.97779 4.54639 10.004 4.54639 10.156 4.4433C10.2346 4.38144 10.3551 4.25258 10.4232 4.15979C10.5018 4.04124 10.5385 3.90722 10.5385 3.74742C10.5385 3.59278 10.5018 3.45876 10.4232 3.34021C10.3551 3.24742 10.2346 3.11856 10.156 3.0567C10.0092 2.95361 9.96731 2.94845 6.43543 2.93814C2.99264 2.92268 2.85116 2.92783 2.67823 3.02062ZM3.30181 7.37113C3.20225 7.40722 3.07648 7.46907 3.02408 7.51031C2.96644 7.5567 2.87736 7.68041 2.81971 7.79381C2.74111 7.94845 2.72539 8.06186 2.74635 8.23196C2.76207 8.36082 2.81971 8.52577 2.87736 8.59278C2.92976 8.66495 3.05552 8.77835 3.15509 8.84021L3.33325 8.95876C8.00749 8.95876 8.24854 8.94845 8.42146 8.86598C8.52627 8.81443 8.66251 8.70619 8.72015 8.61856C8.78827 8.52577 8.84068 8.36082 8.85116 8.18041C8.86688 7.95361 8.84592 7.86598 8.74635 7.7165C8.67823 7.61856 8.51579 7.48454 8.39002 7.42268C8.15421 7.30412 8.13849 7.30412 5.82233 7.30928C4.14548 7.30928 3.43806 7.3299 3.30181 7.37113Z" fill="#3994EF"/>
</svg>
