<svg width="19" height="19" viewBox="0 0 19 19" fill="none" xmlns="http://www.w3.org/2000/svg">
<path fill-rule="evenodd" clip-rule="evenodd" d="M15.9909 3.01009L3.39895 7.56309L7.59394 9.99109L11.2929 6.29109C11.4806 6.10358 11.735 5.99829 12.0003 5.99839C12.2656 5.99848 12.5199 6.10395 12.7074 6.29159C12.895 6.47923 13.0002 6.73367 13.0001 6.99894C13.0001 7.26421 12.8946 7.51858 12.7069 7.70609L9.00694 11.4061L11.4369 15.6001L15.9909 3.01009ZM16.3139 0.76609C17.5089 0.33309 18.6669 1.49109 18.2339 2.68609L12.9519 17.2911C12.5179 18.4891 10.8819 18.6351 10.2429 17.5321L7.02594 11.9741L1.46794 8.75709C0.364945 8.11809 0.510945 6.48209 1.70895 6.04809L16.3139 0.76609Z" fill="white"/>
</svg>
